<svg data-v-0dd9719b="" version="1.0" xmlns="http://www.w3.org/2000/svg" xmlns:xlink="http://www.w3.org/1999/xlink" width="100%" height="100%" viewBox="0 0 340.000000 250.000000" preserveAspectRatio="xMidYMid meet" color-interpolation-filters="sRGB" style="margin: auto;"> <rect data-v-0dd9719b="" x="0" y="0" width="100%" height="100%" fill="#ffffff" fill-opacity="1" class="background"></rect> <rect data-v-0dd9719b="" x="0" y="0" width="100%" height="100%" fill="url(#watermark)" fill-opacity="1" class="watermarklayer"></rect> <g data-v-0dd9719b="" class="iconmbgsvg" transform="translate(59.08250427246094,88.52505874633789)"><g fill="#333" hollow-target="textRect"><g mask="url(#963fcfd6-ce84-4ec1-a2e9-5639e1459969)"><g><rect fill="#333" fill-opacity="0" stroke-width="2" x="0" y="0" width="147.5" height="70.5316412115184" class="image-rect"></rect> <svg x="0" y="0" width="147.5" height="70.5316412115184" filtersec="colorsb6168844071" class="image-svg-svg primary" style="overflow: visible;"><svg xmlns="http://www.w3.org/2000/svg" viewBox="-0.013117790222167969 0.00208282470703125 200.77313232421875 96.00579071044922"><g><g><path d="M53.72 83.56l.79-1c-1.49-1-2.94-2-4.45-2.92a53.38 53.38 0 0 1-15.33-13.38C27 55.85 26.9 44.49 34.45 34A51 51 0 0 1 49.2 20.67c14-8.81 29.57-13.41 45.72-16.29 12.87-2.29 25.87-3.07 38.86-3.55C99.52-1.69 66.15.75 35.85 19.36a43.65 43.65 0 0 0-13.06 12.19c-6.31 9-7.34 18.54-1.59 28.09 7.51 12.46 19.69 18.72 32.52 23.92z" fill="#fdfdfd"></path><path d="M200.76 18.57c-1.47-.66-2.92-1.41-4.42-2-29.7-11.2-60.31-13-91.43-8.48-17.58 2.57-34.49 7.38-49.55 17.28-6.75 4.44-12.65 9.78-16.12 17.31-3.86 8.36-3 17.54 2.56 23.74-3.21-18.29 7.1-28.75 20.59-37.38a62.4 62.4 0 0 1 7-3.89c30.65-14.4 63-16.87 96.12-13.4 11.88 1.25 23.49 4.09 35.25 6.82z" fill="#fdfdfd"></path><path d="M22.11 24.4c-7.18 3.29-13.37 7.77-17.79 14.37-6 8.9-5.74 18.25.6 26.9 4.51 6.17 10.48 10.67 17.14 14.21C46.91 93 73.8 96.19 101.35 96c-14.47-1.71-28.95-3.47-43-7.69-14.9-4.51-29.23-10.2-40.25-21.82C7.39 55.18 7.38 42 17.72 30.33c1.61-1.81 3.95-3.02 4.39-5.93z" fill="#fdfdfd"></path><path d="M53.72 83.56c-12.83-5.2-25-11.46-32.52-23.92-5.75-9.55-4.72-19.08 1.59-28.09a43.65 43.65 0 0 1 13.06-12.19C66.15.75 99.52-1.69 133.78.83c-13 .48-26 1.26-38.86 3.55-16.15 2.88-31.7 7.48-45.72 16.29A51 51 0 0 0 34.45 34c-7.55 10.54-7.5 21.9.28 32.31a53.38 53.38 0 0 0 15.33 13.32c1.51.92 3 1.94 4.45 2.92z" fill="#2c5da8"></path><path d="M200.76 18.57c-11.76-2.73-23.37-5.57-35.29-6.8-33.14-3.47-65.47-1-96.12 13.4a62.4 62.4 0 0 0-7 3.89C48.9 37.69 38.59 48.15 41.8 66.44c-5.53-6.2-6.42-15.38-2.56-23.74 3.47-7.53 9.37-12.87 16.12-17.31 15.06-9.9 32-14.71 49.55-17.28 31.12-4.57 61.73-2.72 91.43 8.48 1.5.57 2.95 1.32 4.42 1.98z" fill="#2c5da8"></path><path d="M22.11 24.4c-.44 2.91-2.78 4.12-4.39 5.93C7.38 42 7.39 55.18 18.1 66.49c11 11.62 25.35 17.31 40.27 21.8 14 4.22 28.51 6 43 7.69-27.57.21-54.46-2.98-79.31-16.1-6.66-3.54-12.63-8-17.14-14.21-6.34-8.65-6.57-18-.6-26.9 4.42-6.6 10.61-11.08 17.79-14.37z" fill="#2c5da8"></path></g></g></svg></svg> <!----></g><rect v-gra="id" width="159.5" height="82.5316390991211" transform="translate(-6, -6)" style="pointer-events:none;" fill="url(#41JC072Bpg1kzlzclPaW2)"></rect></g> <g transform="translate(53.665000915527344,23.581756591796875)"><g data-gra="path-name" fill-rule="" class="tp-name" transform="translate(0,0)" fill="url(#63a6cf4e-409e-496b-8412-e64de61865bd)"><g transform="scale(1)"><g><path d="M12.47-19.69L20.19-19.69 20.33-20.93 13.02-20.93 13.48-24.38 20.84-24.38 21.07-26.04 13.02-26.04 7.91 0.37 0.28 0.37 5.89-28.61 4.46-30.27 21.57-30.27 21.67-30.91 20.19-32.66 30.91-32.66 30.54-30.27 42.04-30.27 41.45-26.04 29.85-26.04 29.62-24.38 38.64-24.38 38-19.69 39.61-19.69 39.15-16.47 37.54-16.47 36.89-11.91 27.88-11.91 27.74-10.95 37.03-10.95 35.47 0.32 8.88 0.32 10.44-10.95 18.95-10.95 19.09-11.91 11.73-11.91 12.24-15.32 19.55-15.32 19.73-16.47 12.01-16.47 12.47-19.69ZM17.62-2.99L27.65-2.99 28.29-7.54 18.26-7.54 17.62-2.99ZM31.65-20.93L29.12-20.93 28.98-19.69 31.46-19.69 31.65-20.93ZM28.34-15.32L30.87-15.32 31-16.47 28.52-16.47 28.34-15.32ZM54.79-26.59L51.84-5.61 57.96-5.61 61.5-30.96 59.98-32.71 70.47-32.71 66.7-5.61 72.82-5.61 75.76-26.59 74.98-27.46 83.72-27.46 79.95-0.37 43.24-0.37 46.78-25.71 46.05-26.59 54.79-26.59ZM105.52-25.67L110.12-25.67 110.63-26.63 104.83-26.63 105.39-30.64 112.79-30.64 113.34-31.69 112.65-32.75 119.97-32.75 118.82-30.64 127.24-30.64 126.68-26.63 116.66-26.63 116.15-25.67 125.58-25.67 125.07-21.9 114.13-21.9 113.39-20.56 125.81-20.56 125.26-16.56 123.1-16.56 124.61-11.78 119.37-11.78 118.73-13.8 118.54-12.37 116.7-12.24 116.43-10.44 123.46-10.44 122.91-6.72 115.92-6.72 114.91 0.37 108.84 0.37 109.85-6.72 102.9-6.72 103.45-10.44 110.35-10.44 110.58-11.87 109.3-11.78 109.48-13.25 108.7-11.78 102.76-11.78 105.29-16.56 103.36-16.56 103.91-20.56 107.41-20.56 108.15-21.9 105.02-21.9 105.52-25.67ZM86.43-13.89L90.85-13.89 91.45-18.22 86.99-17.85 87.63-22.22 90.99-27.46 88.37-27.46 88.96-31.83 104.65-31.83 104.05-27.46 96.88-27.46 93.84-22.72 97.61-23.05 97.57-24.84 102.35-24.84 102.67-17.85 97.84-17.85 97.8-18.77 97.52-18.72 96.83-13.89 102.12-13.89 101.52-9.52 96.19-9.52 95.59-5.01 100.97-5.61 100.33-1.24 84.36 0.41 84.96-3.86 89.52-4.37 90.25-9.52 85.84-9.52 86.43-13.89ZM108.7-5.66L106.03 0.32 101.11 0.32 104.1-5.66 108.7-5.66ZM121.26-5.66L122.87 0.32 118.5 0.32 116.75-5.66 121.26-5.66ZM111.27-16.56L110.63-15.36 118.13-15.82 117.9-16.56 111.27-16.56ZM131.84-15.55L133.31-25.85 165.51-25.85 164.04-15.55 147.38-15.55 145.87-14.31 166.06-14.31 165.6-10.99 161.23-10.99 165.78-6.81 157.18-6.81 152.86-10.99 141.86-10.99 136.8-6.81 127.79-6.81 132.94-10.99 129.03-10.99 129.49-14.31 137.08-14.31 138.6-15.55 131.84-15.55ZM138.28-26.54L138.41-27.51 131.38-27.51 131.84-30.82 138.87-30.82 138.87-30.87 137.4-32.71 147.34-32.71 147.06-30.82 153.13-30.82 153.13-30.87 151.66-32.71 161.6-32.71 161.32-30.82 168.45-30.82 167.99-27.51 160.86-27.51 160.72-26.54 152.54-26.54 152.67-27.51 146.6-27.51 146.46-26.54 138.28-26.54ZM146 0.41L136.85 0.41 140.85-3.13 141.86-10.17 150.28-10.17 149.27-2.99Q149.09-1.7 148.21-0.64 147.34 0.41 146 0.41L146 0.41ZM131.97-5.84L139.01-5.84 135.01 0.32 127.74 0.32 131.97-5.84ZM157.92-6.03L164.04-6.03 165.32 0.32 159.07 0.32 157.92-6.03ZM150.6-6.03L156.58-6.03 157.78 0.32 151.52 0.32 150.6-6.03ZM157.09-23.09L140.71-23.09 140.53-21.9 156.91-21.9 157.09-23.09ZM140.07-18.31L156.45-18.31 156.58-19.27 140.21-19.27 140.07-18.31Z" transform="translate(-0.2800000011920929, 32.75)"></path></g> <!----> <!----> <!----> <!----> <!----> <!----> <!----></g></g> <g data-gra="path-slogan" fill-rule="" class="tp-slogan" fill="#1c085d" transform="translate(31.234996795654297,41.15999984741211)"><!----> <!----> <g transform="scale(1, 1)"><g transform="scale(1)"><path d="M2.84-6.96L0.17-6.96L0.17-7.86L6.53-7.86L6.53-6.96L3.87-6.96L3.87 0L2.84 0L2.84-6.96ZM12.68 0L11.90-2.28L8.72-2.28L7.91 0L6.83 0L9.80-7.86L11-7.86L13.84 0L12.68 0ZM10.31-6.70L9.07-3.22L11.52-3.22L10.36-6.70L10.31-6.70ZM16.07-7.86L20.02-1.50L20.02-7.86L21.05-7.86L21.05 0L19.85 0L15.86-6.36L15.81-6.36L15.81 0L14.78 0L14.78-7.86L16.07-7.86ZM28.57-3.31L26.17-3.31L26.17-4.21L29.61-4.21L29.61 0L28.92 0L28.66-0.99Q27.76 0.09 26.08 0.13L26.08 0.13Q24.49 0.13 23.63-0.69L23.63-0.69Q22.34-1.89 22.39-4.00L22.39-4.00Q22.69-7.91 26.13-8.08L26.13-8.08Q29.05-7.91 29.48-5.50L29.48-5.50L28.45-5.50Q28.02-7.13 26.08-7.18L26.08-7.18Q23.63-7.00 23.50-3.95L23.50-3.95Q23.50-0.69 26.13-0.69L26.13-0.69Q27.07-0.69 27.76-1.20L27.76-1.20Q28.62-1.89 28.57-3.31L28.57-3.31ZM37.00-5.59L37.00-5.59L36.01-5.59Q35.92-7.09 34.03-7.18L34.03-7.18Q32.27-7.13 32.27-5.80L32.27-5.80Q32.27-4.94 33.21-4.81L33.21-4.81L35.45-4.30Q37.21-3.87 37.21-2.15L37.21-2.15Q37.17 0.04 34.12 0.13L34.12 0.13Q32.44 0.13 31.75-0.56L31.75-0.56Q30.89-1.20 30.94-2.54L30.94-2.54L31.97-2.54Q32.01-0.73 34.12-0.69L34.12-0.69Q36.18-0.73 36.22-2.02L36.22-2.02Q36.39-3.09 34.50-3.44L34.50-3.44L32.87-3.78Q31.20-4.25 31.20-5.67L31.20-5.67Q31.32-7.99 33.95-8.08L33.95-8.08Q36.91-8.08 37.00-5.59ZM39.62-4.64L43.74-4.64L43.74-7.86L44.82-7.86L44.82 0L43.74 0L43.74-3.65L39.62-3.65L39.62 0L38.54 0L38.54-7.86L39.62-7.86L39.62-4.64ZM51.65 0L50.88-2.28L47.70-2.28L46.88 0L45.80 0L48.77-7.86L49.97-7.86L52.81 0L51.65 0ZM49.29-6.70L48.04-3.22L50.49-3.22L49.33-6.70L49.29-6.70ZM55.04-7.86L59.00-1.50L59.00-7.86L60.03-7.86L60.03 0L58.82 0L54.83-6.36L54.79-6.36L54.79 0L53.75 0L53.75-7.86L55.04-7.86ZM65.48-0.95L70.34-0.95L70.34 0L64.15 0L64.15-0.86L68.96-6.96L64.50-6.96L64.50-7.86L70.34-7.86L70.34-6.96L65.48-0.95ZM72.45-4.64L76.57-4.64L76.57-7.86L77.64-7.86L77.64 0L76.57 0L76.57-3.65L72.45-3.65L72.45 0L71.37 0L71.37-7.86L72.45-7.86L72.45-4.64ZM80.48-0.95L85.21-0.95L85.21 0L79.41 0L79.41-7.86L85.12-7.86L85.12-6.96L80.48-6.96L80.48-4.51L84.78-4.51L84.78-3.57L80.48-3.57L80.48-0.95ZM87.87-7.86L91.82-1.50L91.82-7.86L92.86-7.86L92.86 0L91.65 0L87.66-6.36L87.61-6.36L87.61 0L86.58 0L86.58-7.86L87.87-7.86ZM102.05-7.86L102.05 0L101.02 0L101.02-4.64Q101.02-5.29 101.02-6.62L101.02-6.62L98.79 0L97.71 0L95.52-6.62L95.48-6.62Q95.48-6.14 95.52-5.20L95.52-5.20Q95.52-4.73 95.52-4.64L95.52-4.64L95.52 0L94.45 0L94.45-7.86L95.99-7.86L98.27-1.20L100.50-7.86L102.05-7.86ZM108.80-2.92L108.80-7.86L109.87-7.86L109.87-2.79Q109.74 0.04 106.65 0.13L106.65 0.13Q103.77 0.04 103.64-2.62L103.64-2.62L103.64-7.86L104.71-7.86L104.71-2.92Q104.76-0.77 106.69-0.73L106.69-0.73Q108.80-0.77 108.80-2.92L108.80-2.92Z" transform="translate(-0.171875, 8.078125)"></path></g></g></g></g></g></g><mask id="0daffad9-aa13-4860-a3a8-e83c6015f56a"><g fill="white"><g><rect fill-opacity="1" stroke-width="2" x="0" y="0" width="147.5" height="70.5316412115184" class="image-rect"></rect> <svg x="0" y="0" width="147.5" height="70.5316412115184" filtersec="colorsb6168844071" class="image-svg-svg primary" style="overflow: visible;"><svg xmlns="http://www.w3.org/2000/svg" viewBox="-0.013117790222167969 0.00208282470703125 200.77313232421875 96.00579071044922"><g><g><path d="M53.72 83.56l.79-1c-1.49-1-2.94-2-4.45-2.92a53.38 53.38 0 0 1-15.33-13.38C27 55.85 26.9 44.49 34.45 34A51 51 0 0 1 49.2 20.67c14-8.81 29.57-13.41 45.72-16.29 12.87-2.29 25.87-3.07 38.86-3.55C99.52-1.69 66.15.75 35.85 19.36a43.65 43.65 0 0 0-13.06 12.19c-6.31 9-7.34 18.54-1.59 28.09 7.51 12.46 19.69 18.72 32.52 23.92z"></path><path d="M200.76 18.57c-1.47-.66-2.92-1.41-4.42-2-29.7-11.2-60.31-13-91.43-8.48-17.58 2.57-34.49 7.38-49.55 17.28-6.75 4.44-12.65 9.78-16.12 17.31-3.86 8.36-3 17.54 2.56 23.74-3.21-18.29 7.1-28.75 20.59-37.38a62.4 62.4 0 0 1 7-3.89c30.65-14.4 63-16.87 96.12-13.4 11.88 1.25 23.49 4.09 35.25 6.82z"></path><path d="M22.11 24.4c-7.18 3.29-13.37 7.77-17.79 14.37-6 8.9-5.74 18.25.6 26.9 4.51 6.17 10.48 10.67 17.14 14.21C46.91 93 73.8 96.19 101.35 96c-14.47-1.71-28.95-3.47-43-7.69-14.9-4.51-29.23-10.2-40.25-21.82C7.39 55.18 7.38 42 17.72 30.33c1.61-1.81 3.95-3.02 4.39-5.93z"></path><path d="M53.72 83.56c-12.83-5.2-25-11.46-32.52-23.92-5.75-9.55-4.72-19.08 1.59-28.09a43.65 43.65 0 0 1 13.06-12.19C66.15.75 99.52-1.69 133.78.83c-13 .48-26 1.26-38.86 3.55-16.15 2.88-31.7 7.48-45.72 16.29A51 51 0 0 0 34.45 34c-7.55 10.54-7.5 21.9.28 32.31a53.38 53.38 0 0 0 15.33 13.32c1.51.92 3 1.94 4.45 2.92z"></path><path d="M200.76 18.57c-11.76-2.73-23.37-5.57-35.29-6.8-33.14-3.47-65.47-1-96.12 13.4a62.4 62.4 0 0 0-7 3.89C48.9 37.69 38.59 48.15 41.8 66.44c-5.53-6.2-6.42-15.38-2.56-23.74 3.47-7.53 9.37-12.87 16.12-17.31 15.06-9.9 32-14.71 49.55-17.28 31.12-4.57 61.73-2.72 91.43 8.48 1.5.57 2.95 1.32 4.42 1.98z"></path><path d="M22.11 24.4c-.44 2.91-2.78 4.12-4.39 5.93C7.38 42 7.39 55.18 18.1 66.49c11 11.62 25.35 17.31 40.27 21.8 14 4.22 28.51 6 43 7.69-27.57.21-54.46-2.98-79.31-16.1-6.66-3.54-12.63-8-17.14-14.21-6.34-8.65-6.57-18-.6-26.9 4.42-6.6 10.61-11.08 17.79-14.37z"></path></g></g></svg></svg> </g></g> <g transform="translate(53.665000915527344,23.581756591796875)"><rect fill="black" fill-opacity="1" x="-3.5" y="-3.5" width="175.1699981689453" height="40.15999984741211"></rect><rect fill="black" fill-opacity="1" x="-3.5" y="-3.5" transform="translate(31.233121767640114,41.15999984741211)" width="116.70000457763672" height="15.210000038146973"></rect></g><g transform="translate(53.665000915527344,23.581756591796875)" fill="black"><g data-gra="path-name" fill-rule="" class="tp-name" transform="translate(0,0)"><g transform="scale(1)"><g><path d="M12.47-19.69L20.19-19.69 20.33-20.93 13.02-20.93 13.48-24.38 20.84-24.38 21.07-26.04 13.02-26.04 7.91 0.37 0.28 0.37 5.89-28.61 4.46-30.27 21.57-30.27 21.67-30.91 20.19-32.66 30.91-32.66 30.54-30.27 42.04-30.27 41.45-26.04 29.85-26.04 29.62-24.38 38.64-24.38 38-19.69 39.61-19.69 39.15-16.47 37.54-16.47 36.89-11.91 27.88-11.91 27.74-10.95 37.03-10.95 35.47 0.32 8.88 0.32 10.44-10.95 18.95-10.95 19.09-11.91 11.73-11.91 12.24-15.32 19.55-15.32 19.73-16.47 12.01-16.47 12.47-19.69ZM17.62-2.99L27.65-2.99 28.29-7.54 18.26-7.54 17.62-2.99ZM31.65-20.93L29.12-20.93 28.98-19.69 31.46-19.69 31.65-20.93ZM28.34-15.32L30.87-15.32 31-16.47 28.52-16.47 28.34-15.32ZM54.79-26.59L51.84-5.61 57.96-5.61 61.5-30.96 59.98-32.71 70.47-32.71 66.7-5.61 72.82-5.61 75.76-26.59 74.98-27.46 83.72-27.46 79.95-0.37 43.24-0.37 46.78-25.71 46.05-26.59 54.79-26.59ZM105.52-25.67L110.12-25.67 110.63-26.63 104.83-26.63 105.39-30.64 112.79-30.64 113.34-31.69 112.65-32.75 119.97-32.75 118.82-30.64 127.24-30.64 126.68-26.63 116.66-26.63 116.15-25.67 125.58-25.67 125.07-21.9 114.13-21.9 113.39-20.56 125.81-20.56 125.26-16.56 123.1-16.56 124.61-11.78 119.37-11.78 118.73-13.8 118.54-12.37 116.7-12.24 116.43-10.44 123.46-10.44 122.91-6.72 115.92-6.72 114.91 0.37 108.84 0.37 109.85-6.72 102.9-6.72 103.45-10.44 110.35-10.44 110.58-11.87 109.3-11.78 109.48-13.25 108.7-11.78 102.76-11.78 105.29-16.56 103.36-16.56 103.91-20.56 107.41-20.56 108.15-21.9 105.02-21.9 105.52-25.67ZM86.43-13.89L90.85-13.89 91.45-18.22 86.99-17.85 87.63-22.22 90.99-27.46 88.37-27.46 88.96-31.83 104.65-31.83 104.05-27.46 96.88-27.46 93.84-22.72 97.61-23.05 97.57-24.84 102.35-24.84 102.67-17.85 97.84-17.85 97.8-18.77 97.52-18.72 96.83-13.89 102.12-13.89 101.52-9.52 96.19-9.52 95.59-5.01 100.97-5.61 100.33-1.24 84.36 0.41 84.96-3.86 89.52-4.37 90.25-9.52 85.84-9.52 86.43-13.89ZM108.7-5.66L106.03 0.32 101.11 0.32 104.1-5.66 108.7-5.66ZM121.26-5.66L122.87 0.32 118.5 0.32 116.75-5.66 121.26-5.66ZM111.27-16.56L110.63-15.36 118.13-15.82 117.9-16.56 111.27-16.56ZM131.84-15.55L133.31-25.85 165.51-25.85 164.04-15.55 147.38-15.55 145.87-14.31 166.06-14.31 165.6-10.99 161.23-10.99 165.78-6.81 157.18-6.81 152.86-10.99 141.86-10.99 136.8-6.81 127.79-6.81 132.94-10.99 129.03-10.99 129.49-14.31 137.08-14.31 138.6-15.55 131.84-15.55ZM138.28-26.54L138.41-27.51 131.38-27.51 131.84-30.82 138.87-30.82 138.87-30.87 137.4-32.71 147.34-32.71 147.06-30.82 153.13-30.82 153.13-30.87 151.66-32.71 161.6-32.71 161.32-30.82 168.45-30.82 167.99-27.51 160.86-27.51 160.72-26.54 152.54-26.54 152.67-27.51 146.6-27.51 146.46-26.54 138.28-26.54ZM146 0.41L136.85 0.41 140.85-3.13 141.86-10.17 150.28-10.17 149.27-2.99Q149.09-1.7 148.21-0.64 147.34 0.41 146 0.41L146 0.41ZM131.97-5.84L139.01-5.84 135.01 0.32 127.74 0.32 131.97-5.84ZM157.92-6.03L164.04-6.03 165.32 0.32 159.07 0.32 157.92-6.03ZM150.6-6.03L156.58-6.03 157.78 0.32 151.52 0.32 150.6-6.03ZM157.09-23.09L140.71-23.09 140.53-21.9 156.91-21.9 157.09-23.09ZM140.07-18.31L156.45-18.31 156.58-19.27 140.21-19.27 140.07-18.31Z" transform="translate(-0.2800000011920929, 32.75)"></path></g>       </g></g> <g data-gra="path-slogan" fill-rule="" class="tp-slogan" transform="translate(31.234996795654297,41.15999984741211)">  <g transform="scale(1, 1)"><g transform="scale(1)"><path d="M2.84-6.96L0.17-6.96L0.17-7.86L6.53-7.86L6.53-6.96L3.87-6.96L3.87 0L2.84 0L2.84-6.96ZM12.68 0L11.90-2.28L8.72-2.28L7.91 0L6.83 0L9.80-7.86L11-7.86L13.84 0L12.68 0ZM10.31-6.70L9.07-3.22L11.52-3.22L10.36-6.70L10.31-6.70ZM16.07-7.86L20.02-1.50L20.02-7.86L21.05-7.86L21.05 0L19.85 0L15.86-6.36L15.81-6.36L15.81 0L14.78 0L14.78-7.86L16.07-7.86ZM28.57-3.31L26.17-3.31L26.17-4.21L29.61-4.21L29.61 0L28.92 0L28.66-0.99Q27.76 0.09 26.08 0.13L26.08 0.13Q24.49 0.13 23.63-0.69L23.63-0.69Q22.34-1.89 22.39-4.00L22.39-4.00Q22.69-7.91 26.13-8.08L26.13-8.08Q29.05-7.91 29.48-5.50L29.48-5.50L28.45-5.50Q28.02-7.13 26.08-7.18L26.08-7.18Q23.63-7.00 23.50-3.95L23.50-3.95Q23.50-0.69 26.13-0.69L26.13-0.69Q27.07-0.69 27.76-1.20L27.76-1.20Q28.62-1.89 28.57-3.31L28.57-3.31ZM37.00-5.59L37.00-5.59L36.01-5.59Q35.92-7.09 34.03-7.18L34.03-7.18Q32.27-7.13 32.27-5.80L32.27-5.80Q32.27-4.94 33.21-4.81L33.21-4.81L35.45-4.30Q37.21-3.87 37.21-2.15L37.21-2.15Q37.17 0.04 34.12 0.13L34.12 0.13Q32.44 0.13 31.75-0.56L31.75-0.56Q30.89-1.20 30.94-2.54L30.94-2.54L31.97-2.54Q32.01-0.73 34.12-0.69L34.12-0.69Q36.18-0.73 36.22-2.02L36.22-2.02Q36.39-3.09 34.50-3.44L34.50-3.44L32.87-3.78Q31.20-4.25 31.20-5.67L31.20-5.67Q31.32-7.99 33.95-8.08L33.95-8.08Q36.91-8.08 37.00-5.59ZM39.62-4.64L43.74-4.64L43.74-7.86L44.82-7.86L44.82 0L43.74 0L43.74-3.65L39.62-3.65L39.62 0L38.54 0L38.54-7.86L39.62-7.86L39.62-4.64ZM51.65 0L50.88-2.28L47.70-2.28L46.88 0L45.80 0L48.77-7.86L49.97-7.86L52.81 0L51.65 0ZM49.29-6.70L48.04-3.22L50.49-3.22L49.33-6.70L49.29-6.70ZM55.04-7.86L59.00-1.50L59.00-7.86L60.03-7.86L60.03 0L58.82 0L54.83-6.36L54.79-6.36L54.79 0L53.75 0L53.75-7.86L55.04-7.86ZM65.48-0.95L70.34-0.95L70.34 0L64.15 0L64.15-0.86L68.96-6.96L64.50-6.96L64.50-7.86L70.34-7.86L70.34-6.96L65.48-0.95ZM72.45-4.64L76.57-4.64L76.57-7.86L77.64-7.86L77.64 0L76.57 0L76.57-3.65L72.45-3.65L72.45 0L71.37 0L71.37-7.86L72.45-7.86L72.45-4.64ZM80.48-0.95L85.21-0.95L85.21 0L79.41 0L79.41-7.86L85.12-7.86L85.12-6.96L80.48-6.96L80.48-4.51L84.78-4.51L84.78-3.57L80.48-3.57L80.48-0.95ZM87.87-7.86L91.82-1.50L91.82-7.86L92.86-7.86L92.86 0L91.65 0L87.66-6.36L87.61-6.36L87.61 0L86.58 0L86.58-7.86L87.87-7.86ZM102.05-7.86L102.05 0L101.02 0L101.02-4.64Q101.02-5.29 101.02-6.62L101.02-6.62L98.79 0L97.71 0L95.52-6.62L95.48-6.62Q95.48-6.14 95.52-5.20L95.52-5.20Q95.52-4.73 95.52-4.64L95.52-4.64L95.52 0L94.45 0L94.45-7.86L95.99-7.86L98.27-1.20L100.50-7.86L102.05-7.86ZM108.80-2.92L108.80-7.86L109.87-7.86L109.87-2.79Q109.74 0.04 106.65 0.13L106.65 0.13Q103.77 0.04 103.64-2.62L103.64-2.62L103.64-7.86L104.71-7.86L104.71-2.92Q104.76-0.77 106.69-0.73L106.69-0.73Q108.80-0.77 108.80-2.92L108.80-2.92Z" transform="translate(-0.171875, 8.078125)"></path></g></g></g></g></mask><defs v-gra="od"><linearGradient x1="0" y1="1" x2="0" y2="0" id="63a6cf4e-409e-496b-8412-e64de61865bd"><stop offset="0%" stop-color="#6e45e2"></stop><stop offset="100%" stop-color="#88d3ce"></stop></linearGradient><filter id="42443b3f1de60f6b6fd3b6a9844b4764" filterUnits="objectBoundingBox"><feColorMatrix type="matrix" values="0 0 0 0 0.99609375  0 0 0 0 0.99609375  0 0 0 0 0.99609375  0 0 0 1 0"></feColorMatrix></filter></defs><defs v-gra="id"><filter id="1060e0a0-af39-45c0-b7c0-12dcee9aa7cc" filterUnits="userSpaceOnUse"><feColorMatrix type="matrix" values="0 0 0 0 0.99609375  0 0 0 0 0.99609375  0 0 0 0 0.99609375  0 0 0 1 0"></feColorMatrix></filter><linearGradient x1="0" y1="1" x2="0" y2="0" id="41JC072Bpg1kzlzclPaW2"><stop offset="0%" stop-color="#6e45e2"></stop><stop offset="100%" stop-color="#88d3ce"></stop></linearGradient><filter id="42443b3f1de60f6b6fd3b6a9844b4764" filterUnits="objectBoundingBox"><feColorMatrix type="matrix" values="0 0 0 0 0.99609375  0 0 0 0 0.99609375  0 0 0 0 0.99609375  0 0 0 1 0"></feColorMatrix></filter></defs><mask v-gra="im" id="963fcfd6-ce84-4ec1-a2e9-5639e1459969"><g mask="url(#0daffad9-aa13-4860-a3a8-e83c6015f56a)" filter="url(#1060e0a0-af39-45c0-b7c0-12dcee9aa7cc)"><g><rect fill="#333" fill-opacity="0" stroke-width="2" x="0" y="0" width="147.5" height="70.5316412115184" class="image-rect"></rect> <svg x="0" y="0" width="147.5" height="70.5316412115184" filtersec="colorsb6168844071" class="image-svg-svg primary" style="overflow: visible;"><svg xmlns="http://www.w3.org/2000/svg" viewBox="-0.013117790222167969 0.00208282470703125 200.77313232421875 96.00579071044922"><g><g><path d="M53.72 83.56l.79-1c-1.49-1-2.94-2-4.45-2.92a53.38 53.38 0 0 1-15.33-13.38C27 55.85 26.9 44.49 34.45 34A51 51 0 0 1 49.2 20.67c14-8.81 29.57-13.41 45.72-16.29 12.87-2.29 25.87-3.07 38.86-3.55C99.52-1.69 66.15.75 35.85 19.36a43.65 43.65 0 0 0-13.06 12.19c-6.31 9-7.34 18.54-1.59 28.09 7.51 12.46 19.69 18.72 32.52 23.92z" fill="#fdfdfd"></path><path d="M200.76 18.57c-1.47-.66-2.92-1.41-4.42-2-29.7-11.2-60.31-13-91.43-8.48-17.58 2.57-34.49 7.38-49.55 17.28-6.75 4.44-12.65 9.78-16.12 17.31-3.86 8.36-3 17.54 2.56 23.74-3.21-18.29 7.1-28.75 20.59-37.38a62.4 62.4 0 0 1 7-3.89c30.65-14.4 63-16.87 96.12-13.4 11.88 1.25 23.49 4.09 35.25 6.82z" fill="#fdfdfd"></path><path d="M22.11 24.4c-7.18 3.29-13.37 7.77-17.79 14.37-6 8.9-5.74 18.25.6 26.9 4.51 6.17 10.48 10.67 17.14 14.21C46.91 93 73.8 96.19 101.35 96c-14.47-1.71-28.95-3.47-43-7.69-14.9-4.51-29.23-10.2-40.25-21.82C7.39 55.18 7.38 42 17.72 30.33c1.61-1.81 3.95-3.02 4.39-5.93z" fill="#fdfdfd"></path><path d="M53.72 83.56c-12.83-5.2-25-11.46-32.52-23.92-5.75-9.55-4.72-19.08 1.59-28.09a43.65 43.65 0 0 1 13.06-12.19C66.15.75 99.52-1.69 133.78.83c-13 .48-26 1.26-38.86 3.55-16.15 2.88-31.7 7.48-45.72 16.29A51 51 0 0 0 34.45 34c-7.55 10.54-7.5 21.9.28 32.31a53.38 53.38 0 0 0 15.33 13.32c1.51.92 3 1.94 4.45 2.92z" fill="#2c5da8"></path><path d="M200.76 18.57c-11.76-2.73-23.37-5.57-35.29-6.8-33.14-3.47-65.47-1-96.12 13.4a62.4 62.4 0 0 0-7 3.89C48.9 37.69 38.59 48.15 41.8 66.44c-5.53-6.2-6.42-15.38-2.56-23.74 3.47-7.53 9.37-12.87 16.12-17.31 15.06-9.9 32-14.71 49.55-17.28 31.12-4.57 61.73-2.72 91.43 8.48 1.5.57 2.95 1.32 4.42 1.98z" fill="#2c5da8"></path><path d="M22.11 24.4c-.44 2.91-2.78 4.12-4.39 5.93C7.38 42 7.39 55.18 18.1 66.49c11 11.62 25.35 17.31 40.27 21.8 14 4.22 28.51 6 43 7.69-27.57.21-54.46-2.98-79.31-16.1-6.66-3.54-12.63-8-17.14-14.21-6.34-8.65-6.57-18-.6-26.9 4.42-6.6 10.61-11.08 17.79-14.37z" fill="#2c5da8"></path></g></g></svg></svg> <!----></g></g></mask></svg>